<svg width="49" height="46" viewBox="0 0 49 46" fill="none" xmlns="http://www.w3.org/2000/svg">
<path fill-rule="evenodd" clip-rule="evenodd" d="M3.03259 1.99314C11.1195 8.76889 19.4761 26.6258 9.77172 36.9326C8.4239 38.3641 4.38042 42.3723 9.77172 41.2271C16.5109 39.7956 48.1848 15.1739 48.1848 15.1739C48.1848 15.1739 23.5869 25.7669 23.5869 22.6176C23.5869 19.4683 31.3369 14.8876 34.0326 12.8725C41.1087 7.58304 15.163 -2.87395 3.03259 1.99314ZM17.1848 12.8725C16.1739 10.8684 14.6014 7.24199 13.4782 6.00136C19.8804 6.00136 29.7645 8.58898 28.6413 10.8794C27.5181 13.1698 19.1428 16.7543 17.1848 12.8725Z" fill="black" stroke="black"/>
</svg>
